<svg xmlns="http://www.w3.org/2000/svg" width="22.083" height="15.155" viewBox="0 0 22.083 15.155">
  <path id="Path_1012" data-name="Path 1012" d="M1490.672,1549.049s.292.423.624.3.259-.6.259-.6l-3.206-6.03a.71.71,0,0,0-.473-.3c-.267,0-.4.3-.4.3l-8.185,14.117a1.188,1.188,0,0,0,0,.528.386.386,0,0,0,.295.212h10.33l5.371-9.216,4.781,8.317h-6.841s-.4.15-.392.5.392.4.392.4h7.709a.5.5,0,0,0,.365-.212.969.969,0,0,0,0-.528l-5.613-9.609a.678.678,0,0,0-.4-.221.7.7,0,0,0-.406.221l-5.531,9.45h-8.914l7.439-12.834Z" transform="translate(-1479.26 -1542.424)" fill="#24aae1"/>
</svg>
