<svg xmlns="http://www.w3.org/2000/svg" xmlns:xlink="http://www.w3.org/1999/xlink" width="192.707" height="193.506" viewBox="0 0 192.707 193.506">
  <defs>
    <filter id="Subtraction_59" x="0" y="104.651" width="88.157" height="88.855" filterUnits="userSpaceOnUse">
      <feOffset dy="3" input="SourceAlpha"/>
      <feGaussianBlur stdDeviation="3" result="blur"/>
      <feFlood flood-opacity="0.161"/>
      <feComposite operator="in" in2="blur"/>
      <feComposite in="SourceGraphic"/>
    </filter>
    <filter id="Subtraction_64" x="20.207" y="36.162" width="58.773" height="90.537" filterUnits="userSpaceOnUse">
      <feOffset dy="3" input="SourceAlpha"/>
      <feGaussianBlur stdDeviation="3" result="blur-2"/>
      <feFlood flood-opacity="0.161"/>
      <feComposite operator="in" in2="blur-2"/>
      <feComposite in="SourceGraphic"/>
    </filter>
    <filter id="Subtraction_65" x="65.821" y="113.539" width="90.537" height="58.773" filterUnits="userSpaceOnUse">
      <feOffset dy="3" input="SourceAlpha"/>
      <feGaussianBlur stdDeviation="3" result="blur-3"/>
      <feFlood flood-opacity="0.161"/>
      <feComposite operator="in" in2="blur-3"/>
      <feComposite in="SourceGraphic"/>
    </filter>
    <filter id="Subtraction_66" x="104.55" y="0" width="88.156" height="88.855" filterUnits="userSpaceOnUse">
      <feOffset dy="3" input="SourceAlpha"/>
      <feGaussianBlur stdDeviation="3" result="blur-4"/>
      <feFlood flood-opacity="0.161"/>
      <feComposite operator="in" in2="blur-4"/>
      <feComposite in="SourceGraphic"/>
    </filter>
    <filter id="Subtraction_67" x="113.726" y="66.808" width="58.774" height="90.537" filterUnits="userSpaceOnUse">
      <feOffset dy="3" input="SourceAlpha"/>
      <feGaussianBlur stdDeviation="3" result="blur-5"/>
      <feFlood flood-opacity="0.161"/>
      <feComposite operator="in" in2="blur-5"/>
      <feComposite in="SourceGraphic"/>
    </filter>
    <filter id="Subtraction_68" x="36.349" y="21.194" width="90.537" height="58.773" filterUnits="userSpaceOnUse">
      <feOffset dy="3" input="SourceAlpha"/>
      <feGaussianBlur stdDeviation="3" result="blur-6"/>
      <feFlood flood-opacity="0.161"/>
      <feComposite operator="in" in2="blur-6"/>
      <feComposite in="SourceGraphic"/>
    </filter>
    <filter id="Path_146" x="75.172" y="88.777" width="41.045" height="37.552" filterUnits="userSpaceOnUse">
      <feOffset dy="3" input="SourceAlpha"/>
      <feGaussianBlur stdDeviation="3" result="blur-7"/>
      <feFlood flood-opacity="0.161"/>
      <feComposite operator="in" in2="blur-7"/>
      <feComposite in="SourceGraphic"/>
    </filter>
    <filter id="Path_147" x="92.704" y="92.475" width="28.651" height="32.715" filterUnits="userSpaceOnUse">
      <feOffset dy="3" input="SourceAlpha"/>
      <feGaussianBlur stdDeviation="3" result="blur-8"/>
      <feFlood flood-opacity="0.161"/>
      <feComposite operator="in" in2="blur-8"/>
      <feComposite in="SourceGraphic"/>
    </filter>
    <filter id="Path_148" x="99.53" y="88.162" width="24.447" height="26.02" filterUnits="userSpaceOnUse">
      <feOffset dy="3" input="SourceAlpha"/>
      <feGaussianBlur stdDeviation="3" result="blur-9"/>
      <feFlood flood-opacity="0.161"/>
      <feComposite operator="in" in2="blur-9"/>
      <feComposite in="SourceGraphic"/>
    </filter>
    <filter id="Path_149" x="100.214" y="80.374" width="24.863" height="24.995" filterUnits="userSpaceOnUse">
      <feOffset dy="3" input="SourceAlpha"/>
      <feGaussianBlur stdDeviation="3" result="blur-10"/>
      <feFlood flood-opacity="0.161"/>
      <feComposite operator="in" in2="blur-10"/>
      <feComposite in="SourceGraphic"/>
    </filter>
    <filter id="Path_150" x="96.239" y="72.632" width="26.506" height="26.677" filterUnits="userSpaceOnUse">
      <feOffset dy="3" input="SourceAlpha"/>
      <feGaussianBlur stdDeviation="3" result="blur-11"/>
      <feFlood flood-opacity="0.161"/>
      <feComposite operator="in" in2="blur-11"/>
      <feComposite in="SourceGraphic"/>
    </filter>
    <filter id="Path_151" x="66.821" y="81.695" width="50.532" height="41.316" filterUnits="userSpaceOnUse">
      <feOffset dy="3" input="SourceAlpha"/>
      <feGaussianBlur stdDeviation="3" result="blur-12"/>
      <feFlood flood-opacity="0.161"/>
      <feComposite operator="in" in2="blur-12"/>
      <feComposite in="SourceGraphic"/>
    </filter>
    <filter id="Path_152" x="69.308" y="71.32" width="49.93" height="38.445" filterUnits="userSpaceOnUse">
      <feOffset dy="3" input="SourceAlpha"/>
      <feGaussianBlur stdDeviation="3" result="blur-13"/>
      <feFlood flood-opacity="0.161"/>
      <feComposite operator="in" in2="blur-13"/>
      <feComposite in="SourceGraphic"/>
    </filter>
    <filter id="Path_153" x="79.138" y="67.635" width="39.694" height="30.873" filterUnits="userSpaceOnUse">
      <feOffset dy="3" input="SourceAlpha"/>
      <feGaussianBlur stdDeviation="3" result="blur-14"/>
      <feFlood flood-opacity="0.161"/>
      <feComposite operator="in" in2="blur-14"/>
      <feComposite in="SourceGraphic"/>
    </filter>
    <filter id="Subtraction_93" x="68.642" y="68.887" width="55.97" height="55.97" filterUnits="userSpaceOnUse">
      <feOffset dy="3" input="SourceAlpha"/>
      <feGaussianBlur stdDeviation="3" result="blur-15"/>
      <feFlood flood-opacity="0.161"/>
      <feComposite operator="in" in2="blur-15"/>
      <feComposite in="SourceGraphic"/>
    </filter>
  </defs>
  <g id="Group_686" data-name="Group 686" transform="translate(-150.473 -130.22)">
    <g id="Group_560" data-name="Group 560" transform="translate(100.92 78.066)">
      <g id="Group_559" data-name="Group 559" transform="translate(0 0)">
        <g id="Group_553" data-name="Group 553" transform="translate(174.083 0) rotate(45)">
          <g transform="matrix(0.71, -0.71, 0.71, 0.71, -51.18, 124.93)" filter="url(#Subtraction_59)">
            <path id="Subtraction_59-2" data-name="Subtraction 59" d="M26.155,69.646c-.308,0-.521-.021-.545-.023l-17-3.942A7.444,7.444,0,0,1,4.884,64a7.057,7.057,0,0,1-1.532-3.71L.058,43.672a2.94,2.94,0,0,1,.284-1.961A5.543,5.543,0,0,1,2.2,40.146L61.568,0a24.1,24.1,0,0,0,3.194,4.127A25.029,25.029,0,0,0,68.93,7.363L29.44,67.838a3.675,3.675,0,0,1-1.485,1.486A4.49,4.49,0,0,1,26.155,69.646Z" transform="translate(9.52 111.36)" fill="#1ac1e0" stroke="#22272b" stroke-width="1"/>
          </g>
          <g transform="matrix(0.71, -0.71, 0.71, 0.71, -51.18, 124.93)" filter="url(#Subtraction_64)">
            <path id="Subtraction_64-2" data-name="Subtraction 64" d="M35.648,39.565l0,0h0a13.267,13.267,0,0,0-3.822-1.6,32.272,32.272,0,0,0-18.932-.848L.422,10.7A2.188,2.188,0,0,1,.108,8.658a2.673,2.673,0,0,1,1.71-1.71L18.641.273A2.91,2.91,0,0,1,19.892,0a2.971,2.971,0,0,1,1.124.221,2.459,2.459,0,0,1,1.43,1.916l2.616,15.112c.006.018.629,1.824,1.949,1.949.051,0,.1.007.157.007a4.929,4.929,0,0,0,2.711-1.451L36.6,11.033A7.1,7.1,0,0,1,38.51,9.5a9.441,9.441,0,0,1,2.548-.789l28.7-6.144a4.437,4.437,0,0,1,.77-.075c.39,0,.873.074.962.424.166.66-.724,1.535-.733,1.543Z" transform="translate(29.71 114.17) rotate(-90)" fill="#e33c3c" stroke="#22272b" stroke-width="1"/>
          </g>
          <g transform="matrix(0.71, -0.71, 0.71, 0.71, -51.18, 124.93)" filter="url(#Subtraction_65)">
            <path id="Subtraction_65-2" data-name="Subtraction 65" d="M35.649,0l0,0h0a13.267,13.267,0,0,1-3.822,1.6A31.99,31.99,0,0,1,20.986,3.475a32.2,32.2,0,0,1-8.093-1.029L.422,28.864a2.188,2.188,0,0,0-.314,2.044,2.673,2.673,0,0,0,1.71,1.71l16.823,6.674a2.909,2.909,0,0,0,1.251.273,2.971,2.971,0,0,0,1.124-.221,2.459,2.459,0,0,0,1.43-1.916l2.617-15.112c.006-.018.629-1.824,1.949-1.949.051,0,.1-.007.157-.007a4.929,4.929,0,0,1,2.711,1.451L36.6,28.533a7.1,7.1,0,0,0,1.908,1.53,9.441,9.441,0,0,0,2.548.789L69.754,37a4.437,4.437,0,0,0,.77.075c.39,0,.873-.074.962-.424.166-.66-.724-1.535-.733-1.543Z" transform="translate(75.35 120.25)" fill="#1ac1e0" stroke="#22272b" stroke-width="1"/>
          </g>
          <g transform="matrix(0.71, -0.71, 0.71, 0.71, -51.18, 124.93)" filter="url(#Subtraction_66)">
            <path id="Subtraction_66-2" data-name="Subtraction 66" d="M26.155,69.646c-.308,0-.521-.021-.545-.023l-17-3.942A7.444,7.444,0,0,1,4.884,64a7.057,7.057,0,0,1-1.532-3.71L.058,43.672a2.94,2.94,0,0,1,.284-1.961A5.543,5.543,0,0,1,2.2,40.146L61.568,0a24.1,24.1,0,0,0,3.194,4.127A25.029,25.029,0,0,0,68.93,7.363L29.44,67.838a3.675,3.675,0,0,1-1.485,1.486A4.49,4.49,0,0,1,26.155,69.646Z" transform="translate(183.18 76.15) rotate(180)" fill="#e33c3c" stroke="#22272b" stroke-width="1"/>
          </g>
          <g transform="matrix(0.71, -0.71, 0.71, 0.71, -51.18, 124.93)" filter="url(#Subtraction_67)">
            <path id="Subtraction_67-2" data-name="Subtraction 67" d="M35.648,39.565l0,0h0a13.267,13.267,0,0,0-3.822-1.6,32.272,32.272,0,0,0-18.932-.848L.422,10.7A2.188,2.188,0,0,1,.108,8.658a2.673,2.673,0,0,1,1.71-1.71L18.641.273A2.909,2.909,0,0,1,19.892,0a2.971,2.971,0,0,1,1.124.221,2.459,2.459,0,0,1,1.43,1.916l2.616,15.112c.006.018.629,1.824,1.949,1.949.051,0,.1.007.157.007a4.929,4.929,0,0,0,2.711-1.451L36.6,11.033A7.1,7.1,0,0,1,38.51,9.5a9.441,9.441,0,0,1,2.548-.789l28.7-6.144a4.437,4.437,0,0,1,.77-.075c.39,0,.873.074.962.424.166.66-.724,1.535-.733,1.543Z" transform="translate(163 73.33) rotate(90)" fill="#1ac1e0" stroke="#22272b" stroke-width="1"/>
          </g>
          <g transform="matrix(0.71, -0.71, 0.71, 0.71, -51.18, 124.93)" filter="url(#Subtraction_68)">
            <path id="Subtraction_68-2" data-name="Subtraction 68" d="M35.649,0l0,0h0a13.267,13.267,0,0,1-3.822,1.6A31.99,31.99,0,0,1,20.986,3.475a32.2,32.2,0,0,1-8.093-1.029L.422,28.864a2.188,2.188,0,0,0-.314,2.044,2.673,2.673,0,0,0,1.71,1.71l16.823,6.674a2.909,2.909,0,0,0,1.251.273,2.971,2.971,0,0,0,1.124-.221,2.459,2.459,0,0,0,1.43-1.916l2.617-15.112c.006-.018.629-1.824,1.949-1.949.051,0,.1-.007.157-.007a4.929,4.929,0,0,1,2.711,1.451L36.6,28.533a7.1,7.1,0,0,0,1.908,1.53,9.441,9.441,0,0,0,2.548.789L69.754,37a4.436,4.436,0,0,0,.77.075c.39,0,.873-.074.962-.424.166-.66-.724-1.535-.733-1.543Z" transform="translate(117.36 67.26) rotate(180)" fill="#e33c3c" stroke="#22272b" stroke-width="1"/>
          </g>
        </g>
      </g>
    </g>
    <g id="Group_562" data-name="Group 562" transform="translate(225.272 202.259)">
      <g id="Group_557" data-name="Group 557" transform="translate(0 0)">
        <g id="Group_555" data-name="Group 555" transform="matrix(0.208, -0.978, 0.978, 0.208, 0, 36.092)">
          <g transform="matrix(0.21, 0.98, -0.98, 0.21, 90.22, -95.65)" filter="url(#Path_146)">
            <path id="Path_146-2" data-name="Path 146" d="M2.217,0A21.79,21.79,0,0,0,.228,5.942,19.727,19.727,0,0,0,.507,13.17s.947,2.345,6.265,4.684a25.124,25.124,0,0,0,8.917,2.372A12.533,12.533,0,0,0,13.154,13.9C10.66,10.336,7.246,6.776,5.3,4.48A27.808,27.808,0,0,1,2.217,0Z" transform="matrix(0.21, -0.98, 0.98, 0.21, 84.17, 110.12)" fill="#1ac1e0"/>
          </g>
          <g transform="matrix(0.21, 0.98, -0.98, 0.21, 90.22, -95.65)" filter="url(#Path_147)">
            <path id="Path_147-2" data-name="Path 147" d="M0,0A16,16,0,0,0,3.982,5.043a13.869,13.869,0,0,0,4.823,3,4.122,4.122,0,0,0,2.969-1,4.034,4.034,0,0,0,1.558-2.6A29.206,29.206,0,0,1,5.1,2.635C.8,1,0,0,0,0Z" transform="matrix(0.21, -0.98, 0.98, 0.21, 101.7, 111.52)" fill="#1ac1e0"/>
          </g>
          <g transform="matrix(0.21, 0.98, -0.98, 0.21, 90.22, -95.65)" filter="url(#Path_148)">
            <path id="Path_148-2" data-name="Path 148" d="M0,4.694s2.536.328,3.825.377A27.366,27.366,0,0,0,7.049,4.9L7.119,0h-3.7A6.25,6.25,0,0,1,2.5,2.607,8.366,8.366,0,0,1,0,4.694Z" transform="matrix(0.21, -0.98, 0.98, 0.21, 108.53, 101.13)" fill="#1ac1e0"/>
          </g>
          <g transform="matrix(0.21, 0.98, -0.98, 0.21, 90.22, -95.65)" filter="url(#Path_149)">
            <path id="Path_149-2" data-name="Path 149" d="M0,.93V5.757a15.4,15.4,0,0,0,3.2-.92A13.437,13.437,0,0,0,5.927,3.18s-.66-.727-1.219-1.5A7.357,7.357,0,0,1,3.838,0S3.106.252,1.95.515,0,.93,0,.93Z" transform="matrix(0.21, -0.98, 0.98, 0.21, 109.21, 92.17)" fill="#1ac1e0"/>
          </g>
          <g transform="matrix(0.21, 0.98, -0.98, 0.21, 90.22, -95.65)" filter="url(#Path_150)">
            <path id="Path_150-2" data-name="Path 150" d="M0,4.64A5.951,5.951,0,0,0,.8,6.1,3.612,3.612,0,0,0,2.132,7.133,17.677,17.677,0,0,0,4.92,4.153,20.848,20.848,0,0,0,7.323.447,2.4,2.4,0,0,0,7.354,0S4.837,1.97,3.192,2.973A28.506,28.506,0,0,1,0,4.64Z" transform="matrix(0.21, -0.98, 0.98, 0.21, 105.24, 85.83)" fill="#1ac1e0"/>
          </g>
          <g transform="matrix(0.21, 0.98, -0.98, 0.21, 90.22, -95.65)" filter="url(#Path_151)">
            <path id="Path_151-2" data-name="Path 151" d="M0,7.54a24.29,24.29,0,0,0,2.988,4.594,89.933,89.933,0,0,1,8.19,9.962,21.534,21.534,0,0,1,2.548,5.614A10.189,10.189,0,0,1,14,29.527l3.566-.1s-.031-3.354-.448-10.7A44.459,44.459,0,0,0,15.558,9a41.564,41.564,0,0,0-4.035-9A21.336,21.336,0,0,0,5.031,2.639,22.143,22.143,0,0,0,0,7.54Z" transform="matrix(0.21, -0.98, 0.98, 0.21, 75.82, 104.87)" fill="#1ac1e0"/>
          </g>
          <g transform="matrix(0.21, 0.98, -0.98, 0.21, 90.22, -95.65)" filter="url(#Path_152)">
            <path id="Path_152-2" data-name="Path 152" d="M0,.029A39.406,39.406,0,0,1,3.705,8.089a51.346,51.346,0,0,1,1.88,10.349c.3,7.307.2,11.1.2,11.1l3.6-.808a19.864,19.864,0,0,1,.966-6.366c1.147-3.933,2.931-6.476,3.625-9.366,1.451-6.034,0-8.069,0-8.069A20.788,20.788,0,0,0,7.58.967,21.824,21.824,0,0,0,0,.029Z" transform="matrix(0.21, -0.98, 0.98, 0.21, 78.31, 91.62)" fill="#1ac1e0"/>
          </g>
          <g transform="matrix(0.21, 0.98, -0.98, 0.21, 90.22, -95.65)" filter="url(#Path_153)">
            <path id="Path_153-2" data-name="Path 153" d="M0,20.3a15.731,15.731,0,0,1,.526-3.809A74.8,74.8,0,0,1,3.94,7.523,19.1,19.1,0,0,0,5.274,0,19.414,19.414,0,0,1,8.217,6.469a21,21,0,0,1,.629,4.8,12.533,12.533,0,0,1-.5,3.195A45.14,45.14,0,0,1,4.73,17.492,31.055,31.055,0,0,1,0,20.3Z" transform="matrix(0.21, -0.98, 0.98, 0.21, 88.14, 82.29)" fill="#1ac1e0"/>
          </g>
        </g>
      </g>
      <g transform="matrix(1, 0, 0, 1, -74.8, -72.04)" filter="url(#Subtraction_93)">
        <path id="Subtraction_93-2" data-name="Subtraction 93" d="M18.986,37.97A18.985,18.985,0,0,1,5.561,5.561,18.985,18.985,0,0,1,32.41,32.41,18.86,18.86,0,0,1,18.986,37.97ZM18.993,1.6A17.377,17.377,0,1,0,36.369,18.98,17.264,17.264,0,0,0,18.993,1.6Z" transform="translate(77.64 74.89)" fill="#171a1d"/>
      </g>
    </g>
  </g>
</svg>
